<svg width="186" height="174" viewBox="0 0 186 174" fill="none" xmlns="http://www.w3.org/2000/svg">
<g filter="url(#filter0_i_0_1)">
<path d="M146 93V82H40V93H146Z" fill="#052DB9"/>
<path d="M62.2727 134V40.9091H94.8182C101.303 40.9091 106.652 42.0303 110.864 44.2727C115.076 46.4848 118.212 49.4697 120.273 53.2273C122.333 56.9545 123.364 61.0909 123.364 65.6364C123.364 69.6364 122.652 72.9394 121.227 75.5455C119.833 78.1515 117.985 80.2121 115.682 81.7273C113.409 83.2424 110.939 84.3636 108.273 85.0909V86C111.121 86.1818 113.985 87.1818 116.864 89C119.742 90.8182 122.152 93.4242 124.091 96.8182C126.03 100.212 127 104.364 127 109.273C127 113.939 125.939 118.136 123.818 121.864C121.697 125.591 118.348 128.545 113.773 130.727C109.197 132.909 103.242 134 95.9091 134H62.2727ZM73.5455 124H95.9091C103.273 124 108.5 122.576 111.591 119.727C114.712 116.848 116.273 113.364 116.273 109.273C116.273 106.121 115.47 103.212 113.864 100.545C112.258 97.8485 109.97 95.697 107 94.0909C104.03 92.4545 100.515 91.6364 96.4545 91.6364H73.5455V124ZM73.5455 81.8182H94.4545C97.8485 81.8182 100.909 81.1515 103.636 79.8182C106.394 78.4848 108.576 76.6061 110.182 74.1818C111.818 71.7576 112.636 68.9091 112.636 65.6364C112.636 61.5455 111.212 58.0758 108.364 55.2273C105.515 52.3485 101 50.9091 94.8182 50.9091H73.5455V81.8182Z" fill="url(#paint0_linear_0_1)"/>
<path d="M71.6364 110V63.4545H87.9091C91.1515 63.4545 93.8258 64.0152 95.9318 65.1364C98.0379 66.2424 99.6061 67.7348 100.636 69.6136C101.667 71.4773 102.182 73.5455 102.182 75.8182C102.182 77.8182 101.826 79.4697 101.114 80.7727C100.417 82.0758 99.4924 83.1061 98.3409 83.8636C97.2045 84.6212 95.9697 85.1818 94.6364 85.5455V86C96.0606 86.0909 97.4924 86.5909 98.9318 87.5C100.371 88.4091 101.576 89.7121 102.545 91.4091C103.515 93.1061 104 95.1818 104 97.6364C104 99.9697 103.47 102.068 102.409 103.932C101.348 105.795 99.6742 107.273 97.3864 108.364C95.0985 109.455 92.1212 110 88.4545 110H71.6364ZM77.2727 105H88.4545C92.1364 105 94.75 104.288 96.2955 102.864C97.8561 101.424 98.6364 99.6818 98.6364 97.6364C98.6364 96.0606 98.2348 94.6061 97.4318 93.2727C96.6288 91.9242 95.4848 90.8485 94 90.0455C92.5152 89.2273 90.7576 88.8182 88.7273 88.8182H77.2727V105ZM77.2727 83.9091H87.7273C89.4242 83.9091 90.9545 83.5758 92.3182 82.9091C93.697 82.2424 94.7879 81.303 95.5909 80.0909C96.4091 78.8788 96.8182 77.4545 96.8182 75.8182C96.8182 73.7727 96.1061 72.0379 94.6818 70.6136C93.2576 69.1742 91 68.4545 87.9091 68.4545H77.2727V83.9091Z" fill="url(#paint1_linear_0_1)"/>
</g>

<rect x="40.5" y="5.40909" width="58.375" height="29" rx="2.5" stroke="white" stroke-opacity="0.0980392"/>

<defs>
<filter id="filter0_i_0_1" x="40" y="40.9091" width="106" height="97.0909" filterUnits="userSpaceOnUse" color-interpolation-filters="sRGB">
<feFlood flood-opacity="0" result="BackgroundImageFix"/>
<feBlend mode="normal" in="SourceGraphic" in2="BackgroundImageFix" result="shape"/>
<feColorMatrix in="SourceAlpha" type="matrix" values="0 0 0 0 0 0 0 0 0 0 0 0 0 0 0 0 0 0 127 0" result="hardAlpha"/>
<feOffset dy="4"/>
<feGaussianBlur stdDeviation="2"/>
<feComposite in2="hardAlpha" operator="arithmetic" k2="-1" k3="1"/>
<feColorMatrix type="matrix" values="0 0 0 0 0 0 0 0 0 0 0 0 0 0 0 0 0 0 0.25 0"/>
<feBlend mode="normal" in2="shape" result="effect1_innerShadow_0_1"/>
</filter>
<linearGradient id="paint0_linear_0_1" x1="93.5" y1="48" x2="93.5" y2="125" gradientUnits="userSpaceOnUse">
<stop stop-color="#052DB9"/>
<stop offset="0.5" stop-color="#052DB9"/>
<stop offset="1" stop-color="#052DB9"/>
</linearGradient>
<linearGradient id="paint1_linear_0_1" x1="93.5" y1="48" x2="93.5" y2="125" gradientUnits="userSpaceOnUse">
<stop stop-color="#052DB9"/>
<stop offset="0.5" stop-color="#052DB9"/>
<stop offset="1" stop-color="#052DB9"/>
</linearGradient>
</defs>
</svg>
